# xmcd
#
# Track frame offsets:
#	150
#	20283
#	43921
#	59398
#	72188
#	91045
#	113640
#	130635
#	152388
#	171278
#	189420
#	205805
#	229170
#	241514
#	258664
#
# Disc length: 3678
#
# Revision: 5
# Processed by: cddbd v1.5.1PL0 Copyright (c) Steve Scherf et al.
# Submitted via: EasyCDDAExtractor 7.5.0.1
# Normalized: r4:DSETVAR1
#
DISCID=ba0e5c0f
DTITLE=Various Artist - Saturday Night - Sunday Morning [CD2)
DYEAR=2004
DGENRE=Pop
TTITLE0=Rod Stewart - Handbags And Gladrags
TTITLE1=Lighthouse Family - High
TTITLE2=Katie Melua - Crawling Up A Hill
TTITLE3=James Brown - I Feel Good
TTITLE4=KC and The Sunshine Band - Give It Up
TTITLE5=Elkie Brooks - No More The Fool
TTITLE6=Diana Ross - Love Hangover
TTITLE7=Honeyz - Finally Found
TTITLE8=Johnny Cash - Sunday Morning Coming Down
TTITLE9=Norman Greenbaum - Spirit In The Sky
TTITLE10=Earth Wind And Fire - September
TTITLE11=The Chi-Lites - Have You Seen Her?
TTITLE12=Chairmen Of The Board - Give Me Just A Little More Time
TTITLE13=Swing Out Sister - Break Out
TTITLE14=Marianne Faithfull - It's All Over Now Baby Blue
EXTD=
EXTT0=
EXTT1=
EXTT2=
EXTT3=
EXTT4=
EXTT5=
EXTT6=
EXTT7=
EXTT8=
EXTT9=
EXTT10=
EXTT11=
EXTT12=
EXTT13=
EXTT14=
PLAYORDER=
